HIERARCHY
ROOT Pelvis
{
	OFFSET 0.000000 0.941512 0.000000
	CHANNELS 6 Xposition Yposition Zposition Zrotation Yrotation Xrotation 
	JOINT Pelvis_L_Hip
	{
		OFFSET 0.000000 0.000000 0.000000
		CHANNELS 3 Zrotation Yrotation Xrotation
		JOINT L_Hip
		{
			OFFSET 0.062321 -0.080322 -0.016990
			CHANNELS 3 Zrotation Yrotation Xrotation
			JOINT L_Knee
			{
				OFFSET 0.093051 -0.381305 -0.029784
				CHANNELS 3 Zrotation Yrotation Xrotation
				JOINT L_Ankle
				{
					OFFSET -0.010371 -0.431000 -0.033614
					CHANNELS 3 Zrotation Yrotation Xrotation
					End Site #name: L_Foot
					{
						OFFSET 0.069299 -0.038670 0.119418
					}
				}
			}
		}
	}
	JOINT Pelvis_R_Hip
	{
		OFFSET 0.000000 0.000000 0.000000
		CHANNELS 3 Zrotation Yrotation Xrotation
		JOINT R_Hip
		{
			OFFSET -0.055334 -0.094904 -0.002373
			CHANNELS 3 Zrotation Yrotation Xrotation
			JOINT R_Knee
			{
				OFFSET -0.064207 -0.384370 -0.019592
				CHANNELS 3 Zrotation Yrotation Xrotation
				JOINT R_Ankle
				{
					OFFSET 0.025418 -0.419734 -0.065953
					CHANNELS 3 Zrotation Yrotation Xrotation
					End Site #name: R_Foot
					{
						OFFSET -0.057233 -0.039888 0.132134
					}
				}
			}
		}
	}
	JOINT Pelvis_Spine1
	{
		OFFSET 0.000000 0.000000 0.000000
		CHANNELS 3 Zrotation Yrotation Xrotation
		JOINT Spine1
		{
			OFFSET -0.005562 0.124093 -0.043360
			CHANNELS 3 Zrotation Yrotation Xrotation
			JOINT Spine2
			{
				OFFSET 0.012244 0.139499 0.029894
				CHANNELS 3 Zrotation Yrotation Xrotation
				JOINT Spine3
				{
					OFFSET -0.002556 0.056561 0.009225
					CHANNELS 3 Zrotation Yrotation Xrotation
					JOINT Spine3_Neck
					{
						OFFSET 0.000000 0.000000 0.000000
						CHANNELS 3 Zrotation Yrotation Xrotation
						JOINT Neck
						{
							OFFSET -0.005205 0.217920 -0.024551
							CHANNELS 3 Zrotation Yrotation Xrotation
							End Site #name: Head
							{
								OFFSET 0.002365 0.091850 0.046637
							}
						}
					}
					JOINT Spine3_L_Collar
					{
						OFFSET 0.000000 0.000000 0.000000
						CHANNELS 3 Zrotation Yrotation Xrotation
						JOINT L_Collar
						{
							OFFSET 0.072225 0.116603 -0.009480
							CHANNELS 3 Zrotation Yrotation Xrotation
							JOINT L_Shoulder
							{
								OFFSET 0.115937 -0.058643 -0.021018
								CHANNELS 3 Zrotation Yrotation Xrotation
								JOINT L_Elbow
								{
									OFFSET 0.021994 -0.254722 -0.024492
									CHANNELS 3 Zrotation Yrotation Xrotation
									End Site #name: L_Wrist
									{
										OFFSET 0.048810 -0.240214 0.103329
									}
								}
							}
						}
					}
					JOINT Spine3_R_Collar
					{
						OFFSET 0.000000 0.000000 0.000000
						CHANNELS 3 Zrotation Yrotation Xrotation
						JOINT R_Collar
						{
							OFFSET -0.073372 0.120704 -0.024611
							CHANNELS 3 Zrotation Yrotation Xrotation
							JOINT R_Shoulder
							{
								OFFSET -0.108089 -0.054969 -0.020504
								CHANNELS 3 Zrotation Yrotation Xrotation
								JOINT R_Elbow
								{
									OFFSET -0.033684 -0.260739 0.009889
									CHANNELS 3 Zrotation Yrotation Xrotation
									End Site #name: R_Wrist
									{
										OFFSET -0.067980 -0.232763 0.118463
									}
								}
							}
						}
					}
				}
			}
		}
	}
}
MOTION
Frames: 17
Frame Time: 0.041667
0.000000 0.962012 0.000000 -6.435224 -1.076480 -11.539397 0.000000 0.000000 0.000000 -2.046884 3.178579 11.579437 5.699218 -1.443191 13.123471 2.447526 -15.458907 -10.705619 0.000000 0.000000 0.000000 -7.380897 5.981878 -52.778838 29.492680 -29.608626 86.237840 -5.480960 -21.574851 6.829905 0.000000 0.000000 0.000000 7.725017 -4.335266 16.990504 0.034014 -0.361338 -7.895452 1.481085 2.185958 6.798763 0.000000 0.000000 0.000000 -1.433675 0.597749 7.571062 0.000000 0.000000 0.000000 18.244488 -4.328842 0.829892 -22.611155 1.432855 -3.482668 0.308957 -1.416759 -7.559352 0.000000 0.000000 0.000000 -21.903191 7.262071 -1.343887 23.034129 -0.469581 3.230857 -8.519838 -1.889337 -11.610595 
-0.003734 0.958082 0.017214 -6.592425 -0.574433 -10.911982 0.000000 0.000000 0.000000 -1.493909 3.188744 12.012456 5.522583 -1.408601 13.068936 2.516562 -15.909009 -10.931739 0.000000 0.000000 0.000000 -8.551286 5.713585 -56.039368 27.406159 -21.896122 72.968184 -4.914804 -21.567059 9.020090 0.000000 0.000000 0.000000 7.763506 -4.641580 18.429688 -0.070138 -0.365348 -8.137396 2.112107 1.650785 7.267229 0.000000 0.000000 0.000000 -1.241071 0.495521 7.406058 0.000000 0.000000 0.000000 18.740333 -5.513121 0.014466 -22.463243 0.994262 -5.050413 0.093988 -1.305201 -6.519442 0.000000 0.000000 0.000000 -21.832340 6.908824 -1.032557 21.380341 0.265872 0.932004 -8.223055 -1.749281 -11.423498 
-0.008051 0.952994 0.038697 -6.527403 -0.491446 -10.586145 0.000000 0.000000 0.000000 -1.365668 3.324445 12.625280 5.835917 -1.541700 13.953014 2.587618 -16.298655 -11.170491 0.000000 0.000000 0.000000 -7.835607 5.938632 -55.096744 23.626641 -14.965037 61.096307 -3.298421 -19.762634 11.849612 0.000000 0.000000 0.000000 7.935390 -4.857298 19.215185 -0.263578 -0.307470 -7.305529 2.484382 1.403219 7.449267 0.000000 0.000000 0.000000 -1.278637 0.515008 7.935328 0.000000 0.000000 0.000000 19.116233 -6.488733 -0.681451 -22.654812 0.706482 -6.135372 0.973904 -0.695047 -5.678958 0.000000 0.000000 0.000000 -22.165865 7.415030 -1.360106 21.170465 0.583239 -0.082324 -8.697400 -2.238470 -10.515306 
-0.014821 0.947556 0.064772 -6.000116 -0.313574 -9.749717 0.000000 0.000000 0.000000 -1.278239 3.393612 12.943417 5.457908 -1.550250 15.048849 2.777815 -16.215064 -11.436314 0.000000 0.000000 0.000000 -6.860006 6.217215 -53.722189 21.208035 -11.894134 55.608107 -1.791052 -18.203194 14.383687 0.000000 0.000000 0.000000 7.522787 -4.682029 19.058370 -0.273878 -0.272447 -6.603457 2.709841 1.217303 7.538285 0.000000 0.000000 0.000000 -1.078385 0.381647 8.705141 0.000000 0.000000 0.000000 19.340843 -6.732565 -0.856635 -22.405219 0.581124 -6.552619 1.314384 -0.456492 -5.315429 0.000000 0.000000 0.000000 -22.101166 7.441844 -1.358926 21.688668 0.538263 0.091485 -9.175788 -2.693201 -9.726036 
-0.020806 0.944806 0.095540 -5.177245 0.126905 -8.490664 0.000000 0.000000 0.000000 -1.794530 3.585469 13.300927 5.375683 -1.573068 15.545853 2.243509 -15.693844 -10.437397 0.000000 0.000000 0.000000 -6.482261 6.204607 -52.693744 22.069638 -12.696167 56.006542 -4.568743 -21.460650 10.174733 0.000000 0.000000 0.000000 7.213029 -4.507060 18.575409 -0.293477 -0.294668 -7.087523 2.629432 1.235546 8.045214 0.000000 0.000000 0.000000 -0.561677 0.063468 8.442167 0.000000 0.000000 0.000000 19.109751 -5.996301 -0.317194 -21.947636 0.520852 -6.732908 1.392632 -0.362970 -5.035161 0.000000 0.000000 0.000000 -21.237587 6.366267 -0.637515 21.671529 0.349784 0.603748 -8.744998 -2.757469 -8.164916 
-0.028867 0.950396 0.127126 -4.965523 0.308424 -7.011517 0.000000 0.000000 0.000000 -1.403614 3.485809 13.196803 5.633242 -1.686606 16.269498 -1.068628 -16.470956 -5.721101 0.000000 0.000000 0.000000 -4.875913 6.795145 -51.861431 20.349765 -11.628978 56.847091 -5.429614 -21.414158 6.758309 0.000000 0.000000 0.000000 7.692640 -4.638927 18.114331 -0.188397 -0.300668 -6.992830 2.467844 1.344217 7.952149 0.000000 0.000000 0.000000 -0.525714 0.064704 7.548797 0.000000 0.000000 0.000000 18.350693 -4.812463 0.448630 -21.901304 0.593065 -6.434414 2.150967 0.081231 -4.612725 0.000000 0.000000 0.000000 -20.501865 6.093640 -0.540112 21.794588 0.027878 1.594915 -8.246721 -3.056424 -5.323831 
-0.036623 0.969048 0.161507 -4.731486 0.204222 -5.278571 0.000000 0.000000 0.000000 -1.345524 3.243455 12.267102 6.149238 -1.875204 17.200139 -6.949901 -16.571588 2.846074 0.000000 0.000000 0.000000 -2.963747 7.240587 -49.113661 19.073346 -10.306269 54.852356 -6.405382 -21.740345 3.401375 0.000000 0.000000 0.000000 8.084495 -4.639267 17.189739 0.126656 -0.331179 -6.997298 2.675748 1.642851 7.548008 0.000000 0.000000 0.000000 -0.694074 0.161639 7.652678 0.000000 0.000000 0.000000 17.844444 -3.809525 1.092972 -22.845337 0.859292 -5.634708 2.891278 0.765419 -2.725675 0.000000 0.000000 0.000000 -20.425135 6.024355 -0.505504 21.965537 -0.344250 2.770088 -7.441159 -3.615894 -0.541889 
-0.043716 0.997766 0.193887 -4.427887 -0.108039 -3.848132 0.000000 0.000000 0.000000 -1.521206 2.469926 9.129680 6.528290 -2.267121 20.762685 -14.964523 -14.382163 15.160519 0.000000 0.000000 0.000000 -1.087840 7.387141 -45.202546 16.976730 -8.221826 51.450951 -6.116543 -20.110938 2.002942 0.000000 0.000000 0.000000 8.479332 -4.613428 16.219207 0.409764 -0.339595 -6.566638 2.788632 1.696119 7.011392 0.000000 0.000000 0.000000 -1.022854 0.356856 8.200158 0.000000 0.000000 0.000000 18.088000 -3.461568 1.352203 -23.683240 1.242353 -4.483871 2.623159 0.880982 -1.383237 0.000000 0.000000 0.000000 -21.062929 6.434695 -0.698909 22.369392 -0.663916 3.799209 -6.371147 -3.965497 3.585013 
-0.050545 1.029321 0.221369 -4.150836 -0.339375 -3.280789 0.000000 0.000000 0.000000 -1.945865 0.938561 3.038021 6.599124 -3.142082 30.268642 -17.887055 -10.397155 21.318814 0.000000 0.000000 0.000000 0.931591 7.110438 -39.710139 14.597221 -5.979685 46.003389 -5.390457 -18.311037 2.159893 0.000000 0.000000 0.000000 8.355659 -4.566849 16.246126 0.897370 -0.375878 -6.211185 2.970690 1.881899 6.640508 0.000000 0.000000 0.000000 -1.241058 0.480703 8.715380 0.000000 0.000000 0.000000 18.399416 -3.885750 1.091473 -23.422860 1.490157 -3.552693 1.103973 0.068742 -2.110969 0.000000 0.000000 0.000000 -21.549638 7.010909 -1.080345 22.407289 -1.032521 4.944027 -6.084715 -3.967226 4.202900 
-0.055407 1.058202 0.245418 -3.508710 -0.955088 -3.606247 0.000000 0.000000 0.000000 -3.110019 -0.883931 -4.081329 5.077664 -3.747500 45.301209 -12.377529 -8.964858 14.477655 0.000000 0.000000 0.000000 2.732459 6.414039 -33.302112 11.426243 -3.573085 40.373392 -4.108950 -15.188831 2.556564 0.000000 0.000000 0.000000 7.715061 -4.373613 16.758582 1.041247 -0.396522 -6.449564 3.246080 2.465873 7.510076 0.000000 0.000000 0.000000 -1.299062 0.521812 8.346968 0.000000 0.000000 0.000000 18.239698 -3.908829 1.068833 -22.582157 1.289839 -4.108201 -0.133528 -0.792559 -3.561101 0.000000 0.000000 0.000000 -22.357792 7.740766 -1.581276 22.353880 -1.237739 5.473300 -6.317930 -3.674050 2.327555 
-0.059651 1.084453 0.268077 -3.186254 -2.306545 -3.888437 0.000000 0.000000 0.000000 -2.973233 -2.568778 -10.295410 1.569913 -2.192809 57.748417 -5.206290 -7.276166 4.659412 0.000000 0.000000 0.000000 4.234025 5.510092 -27.057616 9.100642 -1.953619 33.442155 -2.636259 -12.662791 4.159630 0.000000 0.000000 0.000000 7.478636 -4.290793 17.268843 0.871113 -0.411769 -7.591692 3.602055 3.331109 8.461380 0.000000 0.000000 0.000000 -1.792101 0.823817 8.847555 0.000000 0.000000 0.000000 17.811449 -2.785777 1.802055 -22.714278 1.094298 -4.925876 0.375538 -0.798468 -4.754752 0.000000 0.000000 0.000000 -23.452867 8.506506 -2.072442 22.405519 -1.407476 5.892221 -6.167160 -2.918784 -0.812067 
-0.062210 1.107482 0.288998 -2.553402 -3.775191 -3.978240 0.000000 0.000000 0.000000 -2.978300 -3.945630 -15.470609 -1.062856 -0.008492 64.697186 -0.681698 -4.041074 -1.001385 0.000000 0.000000 0.000000 5.109966 4.451722 -21.429800 6.467006 -0.661752 26.537952 -0.807931 -8.811127 5.142091 0.000000 0.000000 0.000000 7.150546 -4.111258 17.472061 0.632611 -0.414051 -8.582616 3.862660 3.913394 8.807397 0.000000 0.000000 0.000000 -2.428446 1.237344 9.252561 0.000000 0.000000 0.000000 17.216252 -1.650266 2.445912 -22.916036 1.045936 -5.193644 1.351733 -0.475576 -5.510649 0.000000 0.000000 0.000000 -24.382123 9.142471 -2.435700 22.457122 -1.406074 5.866014 -6.493809 -2.315389 -4.299094 
-0.063894 1.124297 0.308942 -1.738646 -5.122161 -4.178165 0.000000 0.000000 0.000000 -3.191563 -4.677846 -18.220438 -1.477697 0.738128 63.487036 0.635366 -3.328741 -2.889866 0.000000 0.000000 0.000000 5.410134 3.354130 -16.365003 4.086997 0.115543 20.436011 1.032423 -5.380402 6.403530 0.000000 0.000000 0.000000 7.004466 -3.908796 17.040512 0.092357 -0.353409 -8.457449 3.722033 3.997787 8.865934 0.000000 0.000000 0.000000 -3.083222 1.685057 9.173633 0.000000 0.000000 0.000000 17.423096 -1.422361 2.553817 -22.909528 0.976268 -5.490926 1.866998 -0.276114 -5.786597 0.000000 0.000000 0.000000 -25.473452 9.736533 -2.690212 22.971015 -1.012803 4.669327 -7.510105 -2.192068 -7.433027 
-0.063715 1.134339 0.327950 -1.115349 -6.305029 -4.365208 0.000000 0.000000 0.000000 -3.552145 -5.006083 -19.389546 0.253381 -0.237599 56.107402 1.014056 -3.102438 -3.470648 0.000000 0.000000 0.000000 5.181119 2.454580 -12.450982 2.740972 0.370225 16.079710 2.656077 -2.190178 7.266401 0.000000 0.000000 0.000000 7.128411 -3.848714 16.794238 -0.319593 -0.311099 -8.494514 3.548166 3.875588 8.412574 0.000000 0.000000 0.000000 -3.585120 2.048595 9.856734 0.000000 0.000000 0.000000 17.462056 -1.600665 2.326448 -22.394165 1.041504 -5.145540 1.634223 -0.374356 -5.705973 0.000000 0.000000 0.000000 -26.209054 10.114623 -2.780086 22.694978 -0.578587 3.451625 -8.019828 -1.889893 -10.205372 
-0.063297 1.138021 0.343486 -1.029881 -7.141678 -3.955694 0.000000 0.000000 0.000000 -3.583035 -5.335247 -20.731855 3.650100 -1.988591 46.517447 0.190448 -5.288702 -3.173130 0.000000 0.000000 0.000000 5.807679 2.076738 -10.622881 1.149758 0.726187 14.180182 3.438123 -0.070787 7.200114 0.000000 0.000000 0.000000 7.619606 -3.911566 16.235368 -0.582896 -0.295304 -8.820700 3.350913 3.431454 8.178189 0.000000 0.000000 0.000000 -3.765724 2.212243 9.989889 0.000000 0.000000 0.000000 17.279820 -1.953807 1.925663 -21.895409 1.119743 -4.784198 1.771875 -0.316947 -5.763554 0.000000 0.000000 0.000000 -26.433854 10.273943 -2.715549 22.048667 -0.008770 1.763959 -8.580772 -1.921991 -11.660828 
-0.061467 1.137969 0.358691 -1.014387 -8.247469 -3.748732 0.000000 0.000000 0.000000 -4.234104 -5.441458 -20.947924 8.687084 -3.738309 36.555318 -3.397414 -18.317014 -3.151606 0.000000 0.000000 0.000000 5.650262 1.845996 -9.649650 0.797685 0.855784 14.235872 3.961124 2.221641 6.529488 0.000000 0.000000 0.000000 7.919457 -3.869845 15.535164 -0.713491 -0.255200 -8.292990 3.314143 2.934566 7.734883 0.000000 0.000000 0.000000 -3.757621 2.259528 9.896892 0.000000 0.000000 0.000000 17.209583 -2.313880 1.513550 -21.717882 1.071335 -4.941413 1.566275 -0.295004 -5.128958 0.000000 0.000000 0.000000 -26.083448 10.299054 -2.550896 21.202377 0.391063 0.551648 -9.589102 -2.364122 -12.603584 
-0.058238 1.137488 0.374322 -1.180260 -9.971038 -3.756178 0.000000 0.000000 0.000000 -5.117522 -5.244155 -19.954307 14.185096 -4.709353 27.162924 -11.456590 -38.469176 0.700639 0.000000 0.000000 0.000000 5.759200 1.685309 -8.926188 0.216337 1.129001 15.015250 4.407338 4.391325 5.842273 0.000000 0.000000 0.000000 8.506013 -3.920680 14.997982 -0.961110 -0.195632 -7.623505 3.205832 2.460058 7.224892 0.000000 0.000000 0.000000 -3.629945 2.277110 10.599701 0.000000 0.000000 0.000000 16.752597 -2.316435 1.255187 -21.603903 1.130827 -4.756067 1.473318 -0.349348 -5.178260 0.000000 0.000000 0.000000 -25.845440 10.344416 -2.331088 21.071755 0.508181 0.240980 -10.576017 -2.808654 -13.549689 
